HIERARCHY
ROOT joint_0
{
	OFFSET 0.000000 0.000000 0.000000
	CHANNELS 6 Xposition Yposition Zposition Zrotation Yrotation Xrotation 
	JOINT joint_1
	{
		OFFSET 1.363060 -1.794630 0.839290
		CHANNELS 3 Zrotation Yrotation Xrotation
		JOINT joint_2
		{
			OFFSET 2.448110 -6.726130 0.000000
			CHANNELS 3 Zrotation Yrotation Xrotation
			JOINT joint_3
			{
				OFFSET 2.562200 -7.039590 0.000000
				CHANNELS 3 Zrotation Yrotation Xrotation
				JOINT joint_4
				{
					OFFSET 0.157640 -0.433110 2.322550
					CHANNELS 3 Zrotation Yrotation Xrotation
					End Site
					{
						OFFSET 0.000000 0.000000 0.000000
					}
				}
			}
		}
	}
	JOINT joint_5
	{
		OFFSET -1.305520 -1.794630 0.839290
		CHANNELS 3 Zrotation Yrotation Xrotation
		JOINT joint_6
		{
			OFFSET -2.542530 -6.985550 0.000000
			CHANNELS 3 Zrotation Yrotation Xrotation
			JOINT joint_7
			{
				OFFSET -2.568260 -7.056230 0.000000
				CHANNELS 3 Zrotation Yrotation Xrotation
				JOINT joint_8
				{
					OFFSET -0.164730 -0.452590 2.363150
					CHANNELS 3 Zrotation Yrotation Xrotation
					End Site
					{
						OFFSET 0.000000 0.000000 0.000000
					}
				}
			}
		}
	}
	JOINT joint_9
	{
		OFFSET 0.028270 2.035590 -0.193380
		CHANNELS 3 Zrotation Yrotation Xrotation
		JOINT joint_10
		{
			OFFSET 0.056720 2.048850 -0.042750
			CHANNELS 3 Zrotation Yrotation Xrotation
			JOINT joint_11
			{
				OFFSET -0.054170 1.746240 0.172020
				CHANNELS 3 Zrotation Yrotation Xrotation
				JOINT joint_12
				{
					OFFSET 0.104070 1.761360 -0.123970
					CHANNELS 3 Zrotation Yrotation Xrotation
					End Site
					{
						OFFSET 0.000000 0.000000 0.000000
					}
				}
			}
			JOINT joint_13
			{
				OFFSET 3.362410 1.200890 -0.311210
				CHANNELS 3 Zrotation Yrotation Xrotation
				JOINT joint_14
				{
					OFFSET 4.983000 -0.000000 -0.000000
					CHANNELS 3 Zrotation Yrotation Xrotation
					JOINT joint_15
					{
						OFFSET 3.483560 -0.000000 -0.000000
						CHANNELS 3 Zrotation Yrotation Xrotation
						JOINT joint_16
						{
							OFFSET 0.000000 0.000000 0.000000
							CHANNELS 3 Zrotation Yrotation Xrotation
							End Site
							{
								OFFSET 0.000000 0.000000 0.000000
							}
						}
					}
				}
			}
			JOINT joint_17
			{
				OFFSET -3.136600 1.374050 -0.404650
				CHANNELS 3 Zrotation Yrotation Xrotation
				JOINT joint_18
				{
					OFFSET -5.241900 -0.000000 -0.000000
					CHANNELS 3 Zrotation Yrotation Xrotation
					JOINT joint_19
					{
						OFFSET -3.444170 -0.000000 -0.000000
						CHANNELS 3 Zrotation Yrotation Xrotation
						JOINT joint_20
						{
							OFFSET 0.000000 0.000000 0.000000
							CHANNELS 3 Zrotation Yrotation Xrotation
							End Site
							{
								OFFSET 0.000000 0.000000 0.000000
							}
						}
					}
				}
			}
		}
	}
}
MOTION
Frames: 6
Frame Time: 0.031667
-9.504039 13.213994 1.398569 -12.802456 78.930977 -3.364663 -2.603358 11.716899 -33.555286 -1.511594 15.357367 39.475400 -0.816286 2.539308 4.120368 -0.349480 0.310200 1.648929 -1.574329 -11.737633 -16.747528 -11.593304 -23.674249 78.532501 -0.906972 -0.951899 0.158582 -2.042736 7.871243 -23.737052 0.224438 -0.739221 0.394710 -1.386769 -0.261635 -8.217969 4.028714 1.622639 10.153555 -1.211628 1.062364 -21.455970 -59.273063 -56.986506 1.960688 24.356686 -30.609869 -11.760246 4.758726 -2.993564 -0.601413 -7.383085 -0.364751 -0.285178 65.861514 67.878013 40.808643 -16.370622 22.237724 -16.800094 -2.337810 4.377238 -0.764458 6.670735 -0.343851 -0.351501 
-9.044865 13.234505 1.380784 -15.252708 78.662460 -5.019760 -2.902490 11.977592 -34.820932 -0.621760 16.322979 42.666138 -0.711579 2.200424 4.070399 -0.350697 0.005233 0.805372 -1.504278 -11.714069 -16.346855 -11.794100 -23.685722 79.036102 -0.830932 -0.883332 0.173147 -1.923470 7.605667 -22.892289 0.248943 -0.558984 0.364314 -1.294068 -0.177083 -8.447453 4.104631 1.576621 10.026150 -0.865581 1.097589 -21.466721 -61.552713 -57.054580 5.916276 23.347892 -29.557094 -11.912896 4.794883 -3.269093 -0.471390 -7.380335 -0.361193 -0.281819 67.951867 66.306421 42.037900 -16.247872 22.127613 -17.416749 -2.296282 4.550206 -0.774791 6.676467 -0.340727 -0.345291 
-8.582102 13.253814 1.375227 -16.009581 78.725639 -5.274573 -3.136665 12.183861 -35.974816 0.276294 17.211811 45.776233 -0.578399 1.943162 3.987994 -0.345910 -0.270437 0.039648 -1.458540 -11.527067 -15.891727 -11.963166 -23.729848 79.586516 -0.768625 -1.007826 0.232959 -1.725412 7.134915 -21.415173 0.231096 -0.391012 0.339877 -1.184187 -0.102823 -8.668659 4.137299 1.516647 9.884198 -0.508324 1.126766 -21.372868 -63.767311 -56.747619 9.964173 22.261909 -28.417011 -12.049610 4.817517 -3.553959 -0.377514 -7.375517 -0.355844 -0.276478 69.815502 64.527585 43.110194 -16.127858 22.038676 -18.029042 -2.249832 4.711203 -0.792581 6.684504 -0.336023 -0.336786 
-8.108243 13.300405 1.390545 -14.743326 79.047958 -3.570675 -3.291039 12.291354 -36.872486 1.098406 17.946988 48.521730 -0.424030 1.789699 3.882139 -0.337034 -0.514208 -0.641122 -1.438453 -11.177755 -15.410933 -12.099583 -23.790101 80.147559 -0.727585 -1.326239 0.343397 -1.445910 6.394533 -19.140389 0.181539 -0.215663 0.314951 -1.091149 -0.035952 -8.870802 4.124481 1.432563 9.733777 -0.152114 1.141641 -21.194914 -65.746204 -56.135959 13.833564 21.164433 -27.239309 -12.202418 4.833221 -3.847199 -0.284460 -7.369115 -0.349455 -0.270100 71.358471 62.661782 43.989920 -15.991040 21.940364 -18.602223 -2.198848 4.868431 -0.787785 6.693657 -0.330434 -0.327060 
-7.625435 13.354099 1.398971 -12.545284 79.557106 -1.045868 -3.394436 12.274067 -37.514518 1.777929 18.542519 50.835008 -0.266036 1.732195 3.784318 -0.325678 -0.741475 -1.278057 -1.406499 -10.676329 -14.977418 -12.224538 -23.917294 80.824780 -0.713293 -1.816894 0.518849 -1.119481 5.377850 -16.098292 0.138284 -0.026882 0.271411 -1.033104 0.026941 -9.039901 4.064462 1.329412 9.585732 0.227306 1.148293 -20.939483 -67.302109 -55.353442 17.235050 20.096870 -26.086827 -12.387460 4.853492 -4.134963 -0.166969 -7.362265 -0.342963 -0.263401 72.677877 60.809163 44.773459 -15.844363 21.819322 -19.120789 -2.160753 5.001004 -0.770810 6.702997 -0.324778 -0.317194 
-7.136471 13.432327 1.396847 -12.834898 80.075310 -0.522212 -3.446818 12.138225 -37.920628 2.305511 19.024306 52.753345 -0.118180 1.734646 3.726919 -0.312041 -0.968815 -1.916881 -1.348903 -10.062843 -14.688478 -12.369265 -24.114765 81.679402 -0.711313 -2.412090 0.744014 -0.793006 4.091248 -12.351181 0.105628 0.172941 0.211773 -1.013186 0.088561 -9.160463 3.931178 1.221159 9.431321 0.654657 1.162247 -20.618569 -68.420468 -54.554460 20.062213 19.078977 -25.001600 -12.589752 4.881689 -4.411282 -0.026207 -7.355591 -0.336639 -0.256389 73.796914 59.086737 45.473516 -15.684271 21.667529 -19.572806 -2.141801 5.096293 -0.765688 6.712132 -0.319330 -0.307554 
